<svg xmlns="http://www.w3.org/2000/svg" version="1.0" viewBox="0 0 1728.000000 2304.000000" preserveAspectRatio="xMidYMid meet" viewport="0 0 300px 400px">
<metadata>
Created by potrace 1.16, written by Peter Selinger 2001-2019
</metadata>
<g transform="translate(0.000000,2304.000000) scale(0.100000,-0.100000)" fill="#000000" stroke="none">
<path d="M8686 17374 c-59 -14 -158 -60 -206 -94 -14 -10 -432 -351 -930 -759 l-905 -740 -5 422 -5 422 -27 51 c-15 28 -48 70 -73 92 -86 76 -28 72 -1071 72 l-932 0 -63 -33 c-68 -35 -124 -97 -150 -165 -11 -31 -14 -272 -17 -1408 l-2 -1370 -318 -260 c-174 -142 -562 -459 -862 -704 -300 -245 -814 -665 -1142 -933 -329 -269 -611 -504 -627 -524 -115 -140 -63 -364 104 -451 69 -36 188 -38 255 -4 25 12 389 304 810 648 l765 626 5 -3804 5 -3803 23 -43 c33 -62 96 -118 158 -142 l55 -20 5322 2 5322 3 49 24 c64 32 113 82 145 150 l26 56 3 3783 c1 2082 6 3782 11 3780 4 -2 346 -280 760 -618 413 -338 772 -626 798 -640 40 -21 61 -25 128 -24 98 0 161 28 223 99 102 116 97 287 -12 400 -28 29 -406 343 -841 697 -757 617 -1372 1119 -3810 3113 -1267 1036 -1330 1087 -1968 1610 -504 413 -573 461 -699 490 -82 18 -223 18 -302 -1z m326 -729 c33 -17 291 -221 595 -470 296 -241 1114 -910 1818 -1485 704 -575 1526 -1247 1828 -1494 l547 -448 0 -3849 0 -3849 -4960 0 -4960 0 0 3849 0 3849 628 513 c345 282 1070 875 1612 1318 542 443 1318 1077 1725 1410 407 333 758 617 780 632 71 47 120 59 230 56 88 -2 107 -6 157 -32z m-2972 -882 l0 -478 -168 -136 c-92 -75 -344 -281 -560 -457 -215 -177 -397 -324 -402 -327 -7 -4 -10 314 -10 934 l0 941 570 0 570 0 0 -477z"/>
<path d="M8700 15293 c-22 -27 -58 -85 -80 -130 -21 -44 -75 -145 -120 -224 -44 -78 -79 -147 -77 -152 1 -5 71 91 155 212 85 122 157 221 161 221 29 0 87 -122 177 -375 48 -134 57 -121 19 25 -56 209 -156 470 -180 470 -7 0 -32 -21 -55 -47z"/>
<path d="M7654 15090 c-37 -15 -154 -152 -244 -288 -98 -147 -211 -367 -294 -572 -30 -74 -71 -173 -91 -220 -132 -304 -243 -741 -261 -1024 -6 -96 -4 -108 31 -236 41 -150 102 -289 161 -366 21 -28 107 -117 190 -196 146 -140 155 -147 283 -212 73 -37 135 -65 138 -63 5 6 -81 100 -233 257 -179 185 -313 444 -374 724 -31 138 -28 403 5 618 31 195 39 230 105 423 51 149 72 193 198 415 72 128 322 503 378 568 42 49 84 57 108 20 7 -13 56 -139 107 -281 90 -249 95 -258 117 -252 38 9 68 33 87 69 l19 34 -39 79 c-68 136 -216 393 -247 429 -56 63 -106 89 -144 74z"/>
<path d="M8310 14599 c-73 -14 -130 -31 -130 -39 0 -4 19 -3 43 2 23 5 119 8 217 5 196 -5 262 -20 449 -98 189 -80 276 -132 685 -408 99 -67 184 -121 190 -121 26 1 -246 220 -340 273 -32 18 -98 62 -146 98 -98 73 -328 191 -462 238 -153 54 -373 76 -506 50z"/>
<path d="M9917 13712 c-24 -26 -33 -59 -63 -222 -50 -280 -94 -416 -170 -530 -87 -132 -318 -344 -494 -453 -132 -82 -154 -102 -187 -175 -42 -89 -29 -91 82 -12 111 80 158 105 272 151 43 17 125 58 183 92 311 183 430 460 430 1002 0 130 -2 154 -16 159 -21 8 -19 9 -37 -12z"/>
<path d="M9380 11828 c0 -25 158 -407 196 -476 21 -37 77 -143 124 -237 48 -93 128 -249 178 -345 112 -215 164 -343 242 -598 111 -359 137 -475 180 -802 52 -399 70 -768 50 -1010 -5 -63 -14 -188 -20 -277 -6 -98 -28 -265 -55 -425 -76 -449 -80 -465 -271 -1093 -170 -558 -209 -670 -275 -799 -31 -61 -78 -151 -103 -201 -45 -87 -130 -329 -142 -404 -10 -64 44 -92 102 -55 30 20 194 291 271 448 30 61 72 167 93 236 66 208 238 843 275 1014 19 89 48 217 65 286 55 232 154 821 194 1160 26 208 56 668 56 838 0 300 -27 591 -80 855 -37 182 -37 191 -7 181 27 -8 427 -244 586 -345 297 -189 559 -421 722 -639 222 -296 352 -521 462 -800 57 -144 79 -232 112 -440 37 -229 40 -328 21 -610 -24 -346 -61 -528 -157 -772 -60 -151 -110 -238 -248 -423 -290 -390 -623 -593 -1106 -675 -172 -29 -482 -32 -595 -7 -143 33 -133 33 -125 6 11 -36 53 -87 85 -104 40 -20 359 -20 534 0 320 38 660 160 883 318 144 102 308 243 376 321 130 151 267 401 366 668 58 156 82 249 111 435 43 280 14 644 -74 928 -41 132 -132 390 -187 526 -60 152 -203 416 -280 519 -80 106 -256 305 -356 401 -150 145 -583 454 -927 662 -174 104 -271 174 -283 200 -7 15 -38 91 -69 169 -119 300 -275 574 -472 826 -57 74 -127 173 -156 221 -65 109 -151 216 -219 273 -66 56 -77 63 -77 46z"/>
<path d="M7522 11343 c-77 -77 -225 -353 -266 -497 -76 -262 -78 -652 -5 -1026 53 -272 121 -496 246 -805 109 -270 175 -407 480 -990 292 -557 326 -626 469 -955 169 -390 255 -671 274 -906 11 -135 1 -393 -20 -505 -6 -28 -10 -87 -10 -129 0 -43 -7 -117 -15 -166 -19 -106 -12 -252 13 -261 40 -16 84 58 113 189 11 51 36 142 55 201 51 159 75 315 76 482 0 220 -32 392 -108 587 -42 107 -225 478 -355 718 -84 156 -309 618 -406 835 -165 366 -410 1080 -507 1476 -54 223 -105 489 -115 602 -17 202 10 477 84 857 56 285 64 340 53 340 -5 0 -30 -21 -56 -47z"/>
<path d="M6811 7889 c-83 -13 -201 -59 -277 -109 -72 -47 -193 -171 -249 -255 -144 -217 -239 -543 -239 -820 1 -308 84 -577 247 -799 201 -273 347 -373 689 -472 213 -61 345 -59 644 12 82 19 257 60 389 89 132 29 226 54 208 54 -38 1 -401 -60 -578 -97 -116 -24 -151 -27 -330 -27 l-200 0 -110 38 c-361 125 -555 292 -730 629 -101 196 -131 337 -122 591 8 272 33 370 158 626 78 159 84 167 172 255 171 170 332 223 545 181 139 -28 344 -144 435 -245 50 -55 103 -159 118 -232 35 -159 -50 -378 -205 -533 -125 -124 -226 -175 -358 -183 -105 -6 -163 14 -220 76 -24 26 -52 66 -62 90 -20 44 -42 59 -30 20 17 -59 36 -91 76 -131 85 -85 190 -113 308 -83 91 24 196 78 274 142 80 66 194 207 235 289 33 68 61 182 61 249 0 113 -55 253 -137 351 -58 70 -196 171 -300 221 -128 60 -296 90 -412 73z"/>
</g>
</svg>